<svg width="1348" height="460" viewBox="0 0 1348 460" fill="none" xmlns="http://www.w3.org/2000/svg">
<mask id="mask0_3178_3825" style="mask-type:luminance" maskUnits="userSpaceOnUse" x="137" y="153" width="179" height="148">
<path d="M137.75 153.787H315.41V300.912H137.75V153.787Z" fill="white"/>
</mask>
<g mask="url(#mask0_3178_3825)">
<path d="M291.684 153.952L244.554 212.203L298.582 256.357L279.192 255.784L227.727 213.991L276.313 153.911L291.684 153.952ZM296.349 300.912L229.349 246.886L205.052 277.129L189.558 277.254L227.521 230.014L315.41 300.912H296.349ZM157.6 154.235L209.553 196.146L243.586 153.787H258.833L211.339 213.018L138.011 153.828L157.6 154.235ZM139.715 300.912L195.687 232.368L143.652 190.209H162.795L212.556 230.621L155.738 300.912H139.715Z" fill="white"/>
</g>
<path d="M494.281 165.286L415.038 290.58H498.864V306.931H391V295.998L470.141 170.705H395.583V154.354H494.281V165.286Z" fill="white"/>
<path d="M574.766 197.892C585.003 197.892 594.374 200.117 602.878 204.568C611.358 209.019 618.055 215.283 622.944 223.338C627.884 231.417 630.379 240.608 630.379 250.912C630.379 254.395 630.201 257.08 629.87 258.943H536.469C537.538 269.585 541.485 278.075 548.284 284.388C555.058 290.725 563.893 293.87 574.766 293.87C590.707 293.87 602.191 287.678 609.193 275.294H627.629C622.995 286.202 616.171 294.596 607.156 300.449C598.117 306.254 587.32 309.157 574.766 309.157C564.224 309.157 554.625 306.738 545.941 301.9C537.309 297.014 530.561 290.338 525.672 281.873C520.783 273.431 518.339 263.974 518.339 253.524C518.339 243.075 520.783 233.642 525.672 225.176C530.561 216.735 537.309 210.083 545.941 205.245C554.625 200.359 564.224 197.892 574.766 197.892ZM574.766 213.179C564.708 213.179 556.356 215.961 549.71 221.5C543.039 226.99 538.863 234.537 537.182 244.139H612.249C611.154 234.851 607.105 227.377 600.128 221.693C593.202 216.033 584.748 213.179 574.766 213.179Z" fill="white"/>
<path d="M708.334 197.892C717.348 197.892 725.344 199.996 732.27 204.181C739.247 208.317 744.645 213.953 748.465 221.112C752.335 228.224 754.27 236.109 754.27 244.816V306.931H737.057V244.816C737.057 235.335 734.307 227.691 728.807 221.886C723.307 216.081 715.718 213.179 706.093 213.179C699.982 213.179 694.38 214.533 689.287 217.242C684.245 219.951 680.247 223.7 677.268 228.465C674.263 233.255 672.786 238.697 672.786 244.816V306.931H655.573V200.117H672.786V214.243C677.395 208.897 682.717 204.834 688.778 202.052C694.813 199.295 701.331 197.892 708.334 197.892Z" fill="white"/>
<path d="M831.116 165.287C825.463 165.287 820.981 166.811 817.671 169.834C814.412 172.882 812.782 177.163 812.782 182.702V200.117H841.403V214.92H812.782V306.932H795.568V214.92H777.234V200.117H795.568V181.638C795.568 172.301 798.726 164.682 805.041 158.804C811.407 152.951 819.734 150 829.995 150H841.403V165.287H831.116Z" fill="white"/>
<path d="M881.584 306.932H864.37V150H881.584V306.932Z" fill="white"/>
<path d="M967.893 309.156C957.148 309.156 947.319 306.738 938.355 301.9C929.443 297.014 922.364 290.29 917.068 281.776C911.771 273.262 909.123 263.852 909.123 253.524C909.123 243.22 911.771 233.787 917.068 225.273C922.364 216.758 929.443 210.083 938.355 205.245C947.319 200.359 957.148 197.892 967.893 197.892C978.614 197.892 988.417 200.359 997.329 205.245C1006.29 210.083 1013.42 216.758 1018.72 225.273C1024.02 233.787 1026.66 243.22 1026.66 253.524C1026.66 263.852 1024.02 273.262 1018.72 281.776C1013.42 290.29 1006.29 297.014 997.329 301.9C988.417 306.738 978.614 309.156 967.893 309.156ZM967.893 293.87C975.354 293.87 982.179 292.104 988.366 288.548C994.605 284.944 999.57 280.107 1003.24 274.036C1006.9 267.916 1008.74 261.071 1008.74 253.524C1008.74 245.978 1006.9 239.181 1003.24 233.11C999.57 226.99 994.605 222.152 988.366 218.597C982.179 214.993 975.354 213.179 967.893 213.179C960.356 213.179 953.481 214.993 947.319 218.597C941.131 222.152 936.216 226.99 932.55 233.11C928.883 239.181 927.049 245.978 927.049 253.524C927.049 261.071 928.883 267.916 932.55 274.036C936.216 280.107 941.131 284.944 947.319 288.548C953.481 292.104 960.356 293.87 967.893 293.87Z" fill="white"/>
<path d="M1166.79 281.39L1199.18 200.118H1217.11L1172.39 306.932H1160.68L1127.37 227.596L1094.07 306.932H1082.86L1038.15 200.118H1056.48L1088.57 280.809L1121.87 200.118H1133.38L1166.79 281.39Z" fill="white"/>
</svg>
