<svg width="1087" height="460" viewBox="0 0 1087 460" fill="none" xmlns="http://www.w3.org/2000/svg">
<path d="M233.281 165.286L154.038 290.58H237.865V306.931H130V295.998L209.141 170.705H134.583V154.354H233.281V165.286Z" fill="white"/>
<path d="M313.767 197.892C324.003 197.892 333.374 200.117 341.879 204.568C350.358 209.019 357.055 215.283 361.944 223.338C366.884 231.417 369.379 240.608 369.379 250.912C369.379 254.395 369.201 257.08 368.87 258.943H275.469C276.539 269.585 280.485 278.075 287.284 284.388C294.058 290.725 302.894 293.87 313.767 293.87C329.707 293.87 341.191 287.678 348.194 275.294H366.629C361.995 286.202 355.171 294.596 346.157 300.449C337.117 306.254 326.32 309.157 313.767 309.157C303.225 309.157 293.625 306.738 284.942 301.9C276.309 297.014 269.561 290.338 264.672 281.873C259.783 273.431 257.339 263.974 257.339 253.524C257.339 243.075 259.783 233.642 264.672 225.176C269.561 216.735 276.309 210.083 284.942 205.245C293.625 200.359 303.225 197.892 313.767 197.892ZM313.767 213.179C303.708 213.179 295.356 215.961 288.71 221.5C282.039 226.99 277.863 234.537 276.182 244.139H351.249C350.154 234.851 346.106 227.377 339.129 221.693C332.202 216.033 323.748 213.179 313.767 213.179Z" fill="white"/>
<path d="M447.334 197.892C456.348 197.892 464.344 199.996 471.27 204.181C478.247 208.317 483.645 213.953 487.465 221.113C491.335 228.224 493.27 236.109 493.27 244.817V306.931H476.057V244.817C476.057 235.335 473.307 227.692 467.807 221.887C462.306 216.081 454.718 213.179 445.093 213.179C438.982 213.179 433.38 214.533 428.287 217.242C423.245 219.952 419.247 223.701 416.268 228.466C413.263 233.255 411.786 238.697 411.786 244.817V306.931H394.573V200.117H411.786V214.243C416.395 208.898 421.717 204.834 427.778 202.052C433.812 199.295 440.331 197.892 447.334 197.892Z" fill="white"/>
<path d="M570.116 165.287C564.463 165.287 559.981 166.811 556.671 169.834C553.411 172.882 551.782 177.163 551.782 182.702V200.117H580.403V214.92H551.782V306.932H534.568V214.92H516.234V200.117H534.568V181.638C534.568 172.301 537.726 164.682 544.041 158.804C550.407 152.951 558.733 150 568.995 150H580.403V165.287H570.116Z" fill="white"/>
<path d="M620.584 306.932H603.37V150H620.584V306.932Z" fill="white"/>
<path d="M706.893 309.157C696.148 309.157 686.319 306.738 677.355 301.9C668.443 297.014 661.364 290.29 656.068 281.776C650.771 273.262 648.123 263.853 648.123 253.524C648.123 243.22 650.771 233.787 656.068 225.273C661.364 216.759 668.443 210.083 677.355 205.245C686.319 200.359 696.148 197.892 706.893 197.892C717.614 197.892 727.417 200.359 736.33 205.245C745.293 210.083 752.423 216.759 757.719 225.273C763.016 233.787 765.664 243.22 765.664 253.524C765.664 263.853 763.016 273.262 757.719 281.776C752.423 290.29 745.293 297.014 736.33 301.9C727.417 306.738 717.614 309.157 706.893 309.157ZM706.893 293.87C714.354 293.87 721.179 292.104 727.366 288.549C733.605 284.945 738.57 280.107 742.237 274.036C745.904 267.916 747.737 261.071 747.737 253.524C747.737 245.978 745.904 239.181 742.237 233.11C738.57 226.99 733.605 222.153 727.366 218.597C721.179 214.993 714.354 213.179 706.893 213.179C699.356 213.179 692.481 214.993 686.319 218.597C680.131 222.153 675.217 226.99 671.55 233.11C667.883 239.181 666.05 245.978 666.05 253.524C666.05 261.071 667.883 267.916 671.55 274.036C675.217 280.107 680.131 284.945 686.319 288.549C692.481 292.104 699.356 293.87 706.893 293.87Z" fill="white"/>
<path d="M905.791 281.39L938.181 200.118H956.107L911.393 306.932H899.68L866.373 227.596L833.066 306.932H821.862L777.148 200.118H795.482L827.566 280.809L860.873 200.118H872.382L905.791 281.39Z" fill="white"/>
</svg>
