<svg width="218" height="188" viewBox="0 0 218 188" fill="none" xmlns="http://www.w3.org/2000/svg">
<mask id="mask0_3178_4118" style="mask-type:luminance" maskUnits="userSpaceOnUse" x="20" y="20" width="178" height="148">
<path d="M20 20H197.66V167.125H20V20Z" fill="white"/>
</mask>
<g mask="url(#mask0_3178_4118)">
<path d="M173.934 20.165L126.804 78.416L180.832 122.57L161.442 121.997L109.977 80.204L158.563 20.124L173.934 20.165ZM178.599 167.125L111.599 113.099L87.302 143.342L71.808 143.467L109.771 96.227L197.66 167.125H178.599ZM39.85 20.448L91.803 62.359L125.836 20H141.083L93.589 79.231L20.261 20.041L39.85 20.448ZM21.965 167.125L77.937 98.581L25.902 56.422H45.045L94.806 96.834L37.988 167.125H21.965Z" fill="white"/>
</g>
</svg>
